# xmcd CD database file
#
# Track frame offsets:
#	150
#	28415
#	58725
#	96450
#	123372
#	141667
#
# Disc length: 2666 seconds
#
# Revision: 0
# Processed by: cddbd v1.5.2PL0 Copyright (c) Steve Scherf et al.
# Submitted via: CDex 1.51
#
DISCID=5f0a6806
DTITLE=Bobby Bland and B.B. King - Together Again ... Live
DYEAR=1976
DGENRE=Blues
TTITLE0=Let The Good Times Roll
TTITLE1=Medley Stormy Monday Blues - Strange Things Happen
TTITLE2=Feel So Bad
TTITLE3=Medley Mother-In-Law Blues - Mean Old World
TTITLE4=Everyday (I Have The Blues)
TTITLE5=Medley The Thrill Is Gone - Ain't Gonna Be The First To Cry
EXTD=YEAR: 1976
EXTT0=
EXTT1=
EXTT2=
EXTT3=
EXTT4=
EXTT5=
PLAYORDER=
